<?xml version="1.0" standalone="no"?>
<!DOCTYPE svg PUBLIC "-//W3C//DTD SVG 20010904//EN"
 "http://www.w3.org/TR/2001/REC-SVG-20010904/DTD/svg10.dtd">
<svg version="1.0" xmlns="http://www.w3.org/2000/svg"
 width="500.000000pt" height="500.000000pt" viewBox="0 0 500.000000 500.000000"
 preserveAspectRatio="xMidYMid meet">
<metadata>
Created by potrace 1.14, written by Peter Selinger 2001-2017
</metadata>
<g transform="translate(0.000000,500.000000) scale(0.100000,-0.100000)"
fill="#000000" stroke="none">
<path d="M0 2500 l0 -2500 2500 0 2500 0 0 2500 0 2500 -2500 0 -2500 0 0
-2500z m2765 1635 c142 -23 261 -60 382 -121 213 -106 340 -228 436 -419 141
-282 127 -680 -40 -1102 -43 -111 -46 -123 -46 -212 0 -85 3 -97 22 -112 14
-12 17 -19 9 -22 -10 -3 -10 -12 1 -43 20 -58 42 -106 63 -136 11 -16 16 -28
12 -28 -4 0 -5 -2 -2 -5 3 -3 13 -2 22 1 13 5 14 9 5 14 -7 5 -1 7 15 7 24 -2
25 -3 9 -15 -9 -6 -20 -12 -25 -12 -18 0 -6 -28 25 -57 69 -66 131 -81 237
-59 94 20 121 20 167 1 60 -25 90 -82 71 -138 -23 -68 -108 -128 -211 -148
-67 -13 -257 -13 -322 0 -27 5 -51 8 -53 6 -2 -2 4 -17 13 -34 27 -53 143
-168 192 -191 48 -23 68 -23 200 -4 56 8 106 -10 142 -51 87 -100 48 -243 -84
-309 -55 -27 -71 -30 -184 -34 -144 -5 -219 6 -372 54 -182 58 -376 168 -541
308 -110 93 -141 114 -220 151 -111 52 -179 62 -264 41 -100 -25 -206 -85
-314 -177 -215 -183 -428 -295 -675 -355 -98 -23 -125 -26 -245 -22 -122 4
-140 7 -192 32 -99 47 -147 130 -133 225 5 35 16 55 49 87 50 51 95 62 176 46
112 -23 162 -8 251 75 45 42 125 150 117 158 -1 2 -26 -1 -53 -6 -70 -14 -271
-13 -328 0 -204 48 -284 211 -140 285 40 20 83 20 178 -1 71 -15 80 -15 128 0
30 9 71 33 95 55 42 38 51 56 32 65 -6 3 -5 4 2 3 18 -4 61 69 87 149 13 39
27 78 32 87 5 10 9 59 9 109 0 84 -3 100 -50 224 -124 332 -164 670 -105 901
84 331 320 566 685 682 64 20 186 48 245 55 86 11 407 6 490 -8z m-1396 -1959
c-2 -2 -20 -6 -39 -10 -25 -4 -31 -3 -20 4 14 9 69 15 59 6z m101 -5 c0 -5 -9
-7 -20 -4 -11 3 -20 7 -20 9 0 2 9 4 20 4 11 0 20 -4 20 -9z m2103 2 c-7 -2
-19 -2 -25 0 -7 3 -2 5 12 5 14 0 19 -2 13 -5z m80 0 c-7 -2 -19 -2 -25 0 -7
3 -2 5 12 5 14 0 19 -2 13 -5z m65 -31 c20 -30 11 -28 -19 4 -13 15 -18 25
-10 22 8 -2 21 -14 29 -26z m-2453 -67 c0 -34 -2 -41 -9 -26 -7 16 -2 71 7 71
1 0 2 -20 2 -45z m2482 -12 c-3 -10 -5 -4 -5 12 0 17 2 24 5 18 2 -7 2 -21 0
-30z m-180 5 c-3 -8 -6 -5 -6 6 -1 11 2 17 5 13 3 -3 4 -12 1 -19z m166 -48
c-5 -19 -33 -49 -33 -36 0 7 31 56 35 56 2 0 1 -9 -2 -20z m-40 -15 c-3 -9 -8
-14 -10 -11 -3 3 -2 9 2 15 9 16 15 13 8 -4z m-2378 -16 c11 -17 -1 -21 -15
-4 -8 9 -8 15 -2 15 6 0 14 -5 17 -11z m30 -39 c3 -6 -1 -7 -9 -4 -18 7 -21
14 -7 14 6 0 13 -4 16 -10z"/>
<path d="M2043 2394 c-61 -40 -86 -92 -81 -165 11 -149 174 -218 288 -123 42
36 62 79 63 133 1 100 -67 172 -171 179 -49 3 -63 0 -99 -24z"/>
<path d="M2782 2399 c-109 -54 -130 -193 -43 -280 83 -84 211 -70 278 30 27
40 31 126 9 169 -16 31 -61 74 -93 91 -34 17 -104 13 -151 -10z"/>
</g>
</svg>
